<?xml version="1.0" encoding="UTF-8"?>
<!DOCTYPE svg PUBLIC "-//W3C//DTD SVG 1.1//EN" "http://www.w3.org/Graphics/SVG/1.1/DTD/svg11.dtd">
<svg version="1.1" xmlns="http://www.w3.org/2000/svg" xmlns:xlink="http://www.w3.org/1999/xlink" x="0" y="0" width="512" height="512" viewBox="0, 0, 512, 512">
  <g id="4">
    <path d="M489.451,112.98 C471.538,95.067 453.624,77.153 435.711,59.24 C427.9,51.429 415.237,51.429 407.427,59.24 C399.617,67.051 399.616,79.714 407.427,87.524 C411.67,91.767 415.912,96.009 420.155,100.252 C411.454,108.953 402.754,117.653 394.053,126.354 C360.075,98.008 318.761,80.896 274.691,76.913 C274.691,64.609 274.691,52.304 274.691,40 C280.691,40 286.691,40 292.691,40 C303.737,40 312.691,31.046 312.691,20 C312.691,8.954 303.737,0 292.691,0 C267.358,0 242.024,0 216.691,0 C205.645,0 196.691,8.954 196.691,20 C196.691,31.046 205.645,40 216.691,40 C222.691,40 228.691,40 234.691,40 C234.691,52.304 234.691,64.609 234.691,76.913 C124.967,86.829 36.691,178.968 36.691,294 C36.691,414.482 134.192,512 254.691,512 C375.173,512 472.691,414.499 472.691,294 C472.691,242.489 454.935,193.714 422.337,154.638 C431.038,145.937 439.738,137.237 448.439,128.536 C452.682,132.779 456.924,137.021 461.167,141.264 C468.977,149.074 481.64,149.075 489.451,141.264 C497.261,133.454 497.261,120.791 489.451,112.98 z M254.691,472 C156.542,472 76.691,392.149 76.691,294 C76.691,195.851 156.542,116 254.691,116 C352.84,116 432.691,195.851 432.691,294 C432.691,392.149 352.841,472 254.691,472 z" fill="#FFFFFF" id="6"/>
    <g id="7">
      <path d="M274.689,286.697 C278.731,297.739 273.051,309.973 262.005,314.004 C250.956,318.026 238.729,312.332 234.694,301.31 C230.646,290.248 236.343,278.031 247.382,274.013 C258.444,269.964 270.661,275.628 274.689,286.697 z" fill="#FFFFFF" id="9"/>
      <path d="M251.726,299.992 C251.726,299.992 251.709,299.975 251.702,299.956 C246.414,297.49 234.552,286.891 237.117,282.152 C237.117,282.152 311.955,159.598 316.28,161.615 C320.605,163.632 275.254,299.928 275.254,299.928 C273.235,304.929 256.997,302.441 251.726,299.992 z" fill="#FFFFFF" id="11"/>
    </g>
  </g>
  <path d="M489.451,112.98 C471.538,95.067 453.624,77.153 435.711,59.24 C427.9,51.429 415.237,51.429 407.427,59.24 C399.617,67.051 399.616,79.714 407.427,87.524 C411.67,91.767 415.912,96.009 420.155,100.252 C411.454,108.953 402.754,117.653 394.053,126.354 C360.075,98.008 318.761,80.896 274.691,76.913 C274.691,64.609 274.691,52.304 274.691,40 C280.691,40 286.691,40 292.691,40 C303.737,40 312.691,31.046 312.691,20 C312.691,8.954 303.737,0 292.691,0 C267.358,0 242.024,0 216.691,0 C205.645,0 196.691,8.954 196.691,20 C196.691,31.046 205.645,40 216.691,40 C222.691,40 228.691,40 234.691,40 C234.691,52.304 234.691,64.609 234.691,76.913 C124.967,86.829 36.691,178.968 36.691,294 C36.691,414.482 134.192,512 254.691,512 C375.173,512 472.691,414.499 472.691,294 C472.691,242.489 454.935,193.714 422.337,154.638 C431.038,145.937 439.738,137.237 448.439,128.536 C452.682,132.779 456.924,137.021 461.167,141.264 C468.977,149.074 481.64,149.075 489.451,141.264 C497.261,133.454 497.261,120.791 489.451,112.98 z M254.691,472 C156.542,472 76.691,392.149 76.691,294 C76.691,195.851 156.542,116 254.691,116 C352.84,116 432.691,195.851 432.691,294 C432.691,392.149 352.841,472 254.691,472 z M274.689,286.697 C278.731,297.739 273.051,309.973 262.005,314.004 C250.956,318.026 238.729,312.332 234.694,301.31 C230.646,290.248 236.343,278.031 247.382,274.013 C258.444,269.964 270.661,275.628 274.689,286.697 z M251.726,299.992 C251.726,299.992 251.709,299.975 251.702,299.956 C246.414,297.49 234.552,286.891 237.117,282.152 C237.117,282.152 311.955,159.598 316.28,161.615 C320.605,163.632 275.254,299.928 275.254,299.928 C273.235,304.929 256.997,302.441 251.726,299.992 z" fill="#FFFFFF" id="16"/>
  <path d="M19.549,112.98 C37.462,95.067 55.376,77.153 73.289,59.24 C81.1,51.429 93.763,51.429 101.573,59.24 C109.383,67.051 109.384,79.714 101.573,87.524 C97.33,91.767 93.088,96.009 88.845,100.252 C97.546,108.953 106.246,117.653 114.947,126.354 C148.925,98.008 190.239,80.896 234.309,76.913 C234.309,64.609 234.309,52.304 234.309,40 C228.309,40 222.309,40 216.309,40 C205.263,40 196.309,31.046 196.309,20 C196.309,8.954 205.263,0 216.309,0 C241.642,0 266.976,0 292.309,0 C303.355,0 312.309,8.954 312.309,20 C312.309,31.046 303.355,40 292.309,40 C286.309,40 280.309,40 274.309,40 C274.309,52.304 274.309,64.609 274.309,76.913 C384.033,86.829 472.309,178.968 472.309,294 C472.309,414.482 374.808,512 254.309,512 C133.827,512 36.309,414.499 36.309,294 C36.309,242.489 54.065,193.714 86.663,154.638 C77.962,145.937 69.262,137.237 60.561,128.536 C56.318,132.779 52.076,137.021 47.833,141.264 C40.023,149.074 27.36,149.075 19.549,141.264 C11.739,133.454 11.739,120.791 19.549,112.98 z M254.309,472 C352.458,472 432.309,392.149 432.309,294 C432.309,195.851 352.458,116 254.309,116 C156.16,116 76.309,195.851 76.309,294 C76.309,392.149 156.159,472 254.309,472 z" fill="#FFFFFF" id="21"/>
  <path d="M19.549,112.98 C37.462,95.067 55.376,77.153 73.289,59.24 C81.1,51.429 93.763,51.429 101.573,59.24 C109.383,67.051 109.384,79.714 101.573,87.524 C97.33,91.767 93.088,96.009 88.845,100.252 C97.546,108.953 106.246,117.653 114.947,126.354 C148.925,98.008 190.239,80.896 234.309,76.913 C234.309,64.609 234.309,52.304 234.309,40 C228.309,40 222.309,40 216.309,40 C205.263,40 196.309,31.046 196.309,20 C196.309,8.954 205.263,-0 216.309,-0 C241.642,0 266.976,0 292.309,-0 C303.355,-0 312.309,8.954 312.309,20 C312.309,31.046 303.355,40 292.309,40 C286.309,40 280.309,40 274.309,40 C274.309,52.304 274.309,64.609 274.309,76.913 C384.033,86.829 472.309,178.968 472.309,294 C472.309,414.482 374.808,512 254.309,512 C133.827,512 36.309,414.499 36.309,294 C36.309,242.489 54.065,193.714 86.663,154.638 C77.962,145.937 69.262,137.237 60.561,128.536 C56.318,132.779 52.076,137.021 47.833,141.264 C40.023,149.074 27.36,149.075 19.549,141.264 C11.739,133.454 11.739,120.791 19.549,112.98 z M254.309,472 C352.458,472 432.309,392.149 432.309,294 C432.309,195.851 352.458,116 254.309,116 C156.16,116 76.309,195.851 76.309,294 C76.309,392.149 156.159,472 254.309,472 z" fill="#FFFFFF" id="26"/>
</svg>
