<?xml version="1.0" encoding="UTF-8"?>
<!DOCTYPE svg PUBLIC "-//W3C//DTD SVG 1.1//EN" "http://www.w3.org/Graphics/SVG/1.1/DTD/svg11.dtd">
<svg version="1.1" xmlns="http://www.w3.org/2000/svg" xmlns:xlink="http://www.w3.org/1999/xlink" x="0" y="0" width="512"
     height="512" viewBox="0, 0, 512, 512">
    <path d="M479.451,112.98 C461.538,95.067 443.624,77.153 425.711,59.24 C417.9,51.429 405.237,51.429 397.427,59.24 C389.617,67.051 389.616,79.714 397.427,87.524 C401.67,91.767 405.912,96.009 410.155,100.252 C401.454,108.953 392.754,117.653 384.053,126.354 C350.075,98.008 308.761,80.896 264.691,76.913 C264.691,64.609 264.691,52.304 264.691,40 C270.691,40 276.691,40 282.691,40 C293.737,40 302.691,31.046 302.691,20 C302.691,8.954 293.737,0 282.691,0 C257.358,0 232.024,0 206.691,0 C195.645,0 186.691,8.954 186.691,20 C186.691,31.046 195.645,40 206.691,40 C212.691,40 218.691,40 224.691,40 C224.691,52.304 224.691,64.609 224.691,76.913 C114.967,86.829 26.691,178.968 26.691,294 C26.691,414.482 124.192,512 244.691,512 C365.173,512 462.691,414.499 462.691,294 C462.691,242.489 444.935,193.714 412.337,154.638 C421.038,145.937 429.738,137.237 438.439,128.536 C442.682,132.779 446.924,137.021 451.167,141.264 C458.977,149.074 471.64,149.075 479.451,141.264 C487.261,133.454 487.261,120.791 479.451,112.98 z M244.691,472 C146.542,472 66.691,392.149 66.691,294 C66.691,195.851 146.542,116 244.691,116 C342.84,116 422.691,195.851 422.691,294 C422.691,392.149 342.841,472 244.691,472 z"
          fill="#ffffff" id="dial"/>
    <g id="hand">
        <path d="M264.689,286.697 C268.731,297.739 263.051,309.973 252.005,314.004 C240.956,318.026 228.729,312.332 224.694,301.31 C220.646,290.248 226.343,278.031 237.382,274.013 C248.444,269.964 260.661,275.628 264.689,286.697 z"
              fill="#ffffff" id="circle"/>
        <path d="M241.726,299.992 C241.726,299.992 241.709,299.975 241.702,299.956 C236.414,297.49 224.552,286.891 227.117,282.152 C227.117,282.152 301.955,159.598 306.28,161.615 C310.605,163.632 265.254,299.928 265.254,299.928 C263.235,304.929 246.997,302.441 241.726,299.992 z"
              fill="#ffffff" id="needle"/>
    </g>
</svg>
